<svg width="281" height="60" viewBox="0 0 281 60" fill="none" xmlns="http://www.w3.org/2000/svg">
<g clip-path="url(#clip0_310_1718)">
<path d="M60.5928 18.3892C60.0635 18.3892 59.5896 18.3782 59.1166 18.3892C58.825 18.3984 58.7973 18.1875 58.7124 17.9951C58.1352 16.681 57.6462 15.3165 56.9479 14.0687C55.3011 11.1279 52.9149 8.87363 50.0379 7.14024C47.6853 5.72279 45.1512 4.75401 42.4835 4.1104C39.3402 3.35419 36.1684 3.10213 32.9528 3.4651C29.4449 3.86673 26.163 4.9481 23.1474 6.79071C19.1925 9.20804 16.1164 12.4622 13.9948 16.5928C12.6505 19.2101 11.9027 22.0055 11.6363 24.9295C11.3229 28.3567 11.3935 31.7714 12.038 35.1617C12.7026 38.6604 14.0066 41.8835 16.1996 44.7142C18.1985 47.2937 20.7292 49.2161 23.6692 50.6067C26.9687 52.1662 30.4565 52.9904 34.088 53.2652C38.8151 53.6223 43.401 52.9291 47.8786 51.4369C48.844 51.1159 49.7758 50.6924 50.7252 50.321C51.0084 50.211 51.1185 50.0303 51.1185 49.7152C51.1185 46.5274 51.1285 43.3393 51.1487 40.151C51.1487 39.9224 51.1319 39.7309 50.8328 39.7157C47.6769 39.5334 44.537 39.5275 41.5189 40.6711C40.0358 41.2389 38.7104 42.1539 37.6539 43.3396C36.9246 44.1504 36.0642 44.3655 35.0895 44.4235C34.2106 44.4748 33.3292 44.5075 32.4495 44.5008C31.2875 44.4907 30.2112 44.7445 29.2071 45.341C28.6307 45.6822 28.0358 45.9972 27.4334 46.2896C26.9427 46.5283 26.5175 46.4249 26.2806 46.0535C26.1126 45.7939 26.0638 45.4973 26.326 45.2973C27.2779 44.5579 27.2082 43.5757 26.9587 42.5851C26.7444 41.734 26.4218 40.9105 26.1646 40.0703C25.9529 39.3763 26.0462 38.7587 26.6158 38.2344C26.9172 37.9446 27.1847 37.6216 27.4132 37.2715C27.4972 37.1455 27.4578 36.9354 27.4746 36.7581C27.3063 36.7528 27.1379 36.7584 26.9704 36.7749C26.8471 36.8013 26.7292 36.8485 26.6217 36.9144C26.1924 37.1522 25.6193 37.1934 25.4009 37.7278C25.0782 38.5184 24.9304 39.336 25.1589 40.1829C25.311 40.745 25.542 41.2937 25.6219 41.8633C25.6992 42.4112 25.2757 42.6935 24.7892 42.4103C24.1142 42.0185 23.4746 41.5687 22.8777 41.066C21.4972 39.8981 20.21 38.6335 19.242 37.0875C18.9903 36.6852 18.7795 36.2588 18.6127 35.8146C18.2691 34.8996 18.4917 34.2308 19.3361 33.7401C19.8277 33.4552 20.378 33.2729 20.9006 33.0418C21.0437 32.9864 21.1812 32.9178 21.3115 32.8368C21.7375 32.5369 21.698 32.0731 21.2224 31.8512C21.0304 31.7681 20.8306 31.7042 20.6259 31.6605C20.0537 31.5219 19.6798 31.1144 19.3874 30.659C19.2916 30.5094 19.3681 30.1641 19.4832 29.9809C19.7831 29.5053 20.2579 29.2113 20.7897 29.0516C21.3392 28.8836 21.6619 28.5559 21.8165 28.0064C21.9316 27.5997 22.1366 27.2443 22.5601 27.0443C23.3533 26.6679 23.7272 26.7612 24.3313 27.4014C24.564 27.6476 24.9194 27.798 25.2362 27.9425C26.4318 28.4819 26.7015 28.5618 25.6622 28.8911C25.4723 28.9516 25.2186 29.0037 25.1219 29.1432C24.7018 29.7658 24.2817 30.3968 23.9523 31.0707C23.6507 31.6899 23.9002 32.0882 24.5607 32.247C25.5059 32.4713 26.1571 32.163 26.6242 31.253C27.2964 29.9448 27.9989 28.6626 28.9668 27.5409C29.3491 27.0972 29.6927 26.6166 30.044 26.1512C30.1406 26.0139 30.2215 25.8662 30.2851 25.7109C30.6615 24.8572 30.296 24.0918 29.3693 23.9607C28.529 23.8422 27.6712 23.8515 26.8209 23.8002C26.5836 23.7928 26.347 23.7707 26.1126 23.7338C25.4664 23.6128 25.1883 23.0986 25.4404 22.4861C25.5362 22.2567 25.6924 22.0534 25.821 21.8383C26.8578 20.099 28.4921 19.2412 30.3742 18.7471C30.6044 18.6866 30.8254 18.5925 31.0556 18.5396C31.9269 18.3396 32.4546 17.7187 32.9478 17.0406C33.1444 16.7522 33.3733 16.4873 33.63 16.2508C33.7762 16.1248 34.0703 16.0139 34.2123 16.0827C34.3804 16.1609 34.5131 16.4247 34.5576 16.6297C34.6417 17.0372 34.6417 17.4641 34.7131 17.8749C34.8148 18.4303 34.982 18.5337 35.5348 18.5639C35.9102 18.5808 36.2833 18.6309 36.6498 18.7135C36.975 18.7908 37.0447 19.0303 36.8061 19.2697C36.6121 19.4448 36.3881 19.5835 36.1448 19.6789C35.918 19.7797 35.6575 19.8033 35.4248 19.8932C34.7467 20.157 34.5602 20.7334 35.0769 21.2325C36.0776 22.2046 36.3137 23.4591 36.4876 24.7345C36.6616 26.01 36.6557 27.3123 36.9128 28.5643C37.411 30.9715 38.5495 33.0175 40.7375 34.3274C42.0709 35.1247 43.5623 35.4449 45.0798 35.6415C46.9501 35.8835 48.8238 36.0927 50.6958 36.3195C50.926 36.3481 51.0941 36.3095 51.0815 36.0313C51.021 34.6971 50.8824 33.3754 50.1993 32.1882C49.4321 30.8556 48.171 30.1901 46.7443 29.8843C45.5755 29.6322 44.3715 29.5423 43.1783 29.4247C42.7734 29.3843 42.6162 29.2642 42.6213 28.8441C42.6347 27.7577 42.6213 27.7585 43.6959 27.7585H68.5775C69.1934 27.7585 69.1934 27.7585 69.1934 28.3693C69.1934 29.3633 69.1883 29.3205 68.1969 29.4616C67.0542 29.6297 65.8988 29.7927 64.794 30.112C62.8211 30.6833 61.7204 32.1184 61.428 34.103C61.2056 35.581 61.0851 37.0726 61.0676 38.5671C61.0247 43.4472 61.0474 48.3272 61.0676 53.208C61.0676 53.6441 60.9323 53.8886 60.5508 54.0953C58.1142 55.4195 55.5557 56.4715 52.9241 57.3403C46.2866 59.506 39.2916 60.362 32.3277 59.8609C27.2023 59.4694 22.245 58.3813 17.5465 56.2413C13.3117 54.3324 9.53334 51.5414 6.46391 48.055C3.95753 45.2125 2.07038 42.0053 0.960446 38.3571C0.0353594 35.3163 -0.173856 32.2176 0.130305 29.0651C0.520514 24.8487 1.80398 20.7637 3.89535 17.0818C4.93387 15.2518 6.19924 13.5822 7.57637 11.9942C9.92722 9.28473 12.7324 7.00582 15.866 5.25982C18.8272 3.5922 21.9825 2.2955 25.2606 1.39899C27.5182 0.783948 29.8112 0.316784 32.1437 0.186549C34.2056 0.0714384 36.2818 0.0857222 38.3462 0.169745C40.9753 0.278134 43.5892 0.599939 46.1099 1.40571C48.0248 2.01824 49.9035 2.75007 51.8234 3.34411C52.7056 3.61802 53.6425 3.73818 54.5634 3.85833C55.2893 3.95327 55.8153 3.55249 56.201 2.96265C56.7152 2.17452 56.9757 1.29144 57.1202 0.373919C57.1639 0.0932842 57.2689 -0.0109036 57.5504 0.0050607C57.8991 0.0244949 58.2487 0.0233726 58.5973 0.0016998C58.8872 -0.0159449 58.9939 0.103367 59.0174 0.37896C59.1359 1.77121 59.2695 3.16262 59.3913 4.55487C59.6921 7.88048 59.9926 11.2066 60.2929 14.5334C60.3987 15.7164 60.4928 16.9011 60.5911 18.085C60.5979 18.1665 60.5928 18.248 60.5928 18.3892Z" fill="#EF7F1A"/>
<path d="M120.905 17V7.28H122.107V11.843L126.359 7.28H127.871L123.457 11.9982L128.216 17H126.663L122.107 12.248V17H120.905ZM128.483 17V15.9537C128.722 15.9762 128.92 15.965 129.077 15.92C129.235 15.875 129.363 15.7782 129.462 15.6297C129.566 15.4812 129.656 15.2652 129.732 14.9817C129.809 14.6937 129.883 14.3202 129.955 13.8612C130.049 13.3212 130.128 12.7767 130.191 12.2277C130.254 11.6742 130.308 11.1207 130.353 10.5672C130.403 10.0092 130.443 9.45575 130.475 8.90675C130.506 8.35325 130.533 7.811 130.556 7.28H136.813V17H135.611V8.42075H131.696C131.669 8.83025 131.64 9.269 131.609 9.737C131.582 10.2005 131.546 10.6842 131.501 11.1882C131.456 11.6922 131.402 12.212 131.339 12.7475C131.276 13.283 131.197 13.8275 131.102 14.381C131.026 14.8265 130.934 15.2337 130.826 15.6027C130.722 15.9717 130.576 16.28 130.387 16.5275C130.202 16.775 129.957 16.9437 129.651 17.0338C129.35 17.1238 128.96 17.1125 128.483 17ZM146.203 17H144.988V9.3995L139.918 17H138.703V7.28H139.918V14.8737L144.988 7.28H146.203V17ZM148.09 17V7.28H149.292V11.5662H154.408V7.28H155.61V17H154.408V12.707H149.292V17H148.09ZM165.002 17H163.787V9.3995L158.718 17H157.503V7.28H158.718V14.8737L163.787 7.28H165.002V17ZM166.89 17V7.28H168.091V11.843L172.344 7.28H173.856L169.441 11.9982L174.2 17H172.648L168.091 12.248V17H166.89ZM174.468 17L177.721 7.28H179.395L182.649 17H181.4L178.356 7.982H178.734L175.717 17H174.468ZM176.034 14.7252V13.598H181.083V14.7252H176.034ZM189.78 17.2025C189.114 17.2025 188.533 17.1058 188.038 16.9122C187.548 16.7142 187.14 16.4577 186.816 16.1427C186.497 15.8232 186.254 15.4812 186.087 15.1167L187.154 14.4552C187.262 14.7387 187.428 15.002 187.653 15.245C187.883 15.488 188.175 15.6837 188.531 15.8322C188.891 15.9807 189.323 16.055 189.827 16.055C190.34 16.055 190.77 15.9762 191.116 15.8187C191.463 15.6567 191.721 15.4385 191.892 15.164C192.068 14.885 192.156 14.5655 192.156 14.2055C192.156 13.796 192.054 13.481 191.852 13.2605C191.649 13.0355 191.377 12.878 191.035 12.788C190.698 12.6935 190.324 12.6395 189.915 12.626C189.595 12.6125 189.366 12.6035 189.226 12.599C189.087 12.5945 188.992 12.5922 188.943 12.5922C188.898 12.5922 188.855 12.5922 188.814 12.5922V11.4447C188.855 11.4447 188.94 11.4447 189.071 11.4447C189.201 11.4447 189.339 11.4447 189.483 11.4447C189.627 11.4402 189.741 11.4357 189.827 11.4312C190.43 11.3997 190.909 11.2467 191.265 10.9722C191.62 10.6932 191.798 10.3107 191.798 9.82475C191.798 9.32075 191.616 8.927 191.251 8.6435C190.891 8.36 190.421 8.21825 189.84 8.21825C189.291 8.21825 188.823 8.3465 188.436 8.603C188.054 8.8595 187.748 9.19025 187.518 9.59525L186.594 8.8055C186.909 8.306 187.345 7.89425 187.903 7.57025C188.466 7.24175 189.123 7.0775 189.874 7.0775C190.288 7.0775 190.686 7.13375 191.069 7.24625C191.456 7.35425 191.798 7.52075 192.095 7.74575C192.396 7.96625 192.635 8.2475 192.81 8.5895C192.986 8.927 193.074 9.3275 193.074 9.791C193.074 10.2905 192.968 10.7337 192.756 11.1207C192.545 11.5077 192.268 11.807 191.926 12.0185C192.399 12.176 192.768 12.437 193.033 12.8015C193.299 13.166 193.431 13.6385 193.431 14.219C193.431 14.8265 193.276 15.353 192.966 15.7985C192.66 16.244 192.232 16.5905 191.683 16.838C191.134 17.081 190.5 17.2025 189.78 17.2025ZM194.852 17V7.28H198.693C198.788 7.28 198.9 7.2845 199.031 7.2935C199.161 7.298 199.287 7.3115 199.409 7.334C199.935 7.415 200.376 7.595 200.732 7.874C201.092 8.153 201.362 8.50625 201.542 8.93375C201.722 9.35675 201.812 9.827 201.812 10.3445C201.812 10.8575 201.719 11.3277 201.535 11.7552C201.355 12.1782 201.085 12.5315 200.725 12.815C200.369 13.094 199.931 13.274 199.409 13.355C199.287 13.373 199.161 13.3865 199.031 13.3955C198.9 13.4045 198.788 13.409 198.693 13.409H196.054V17H194.852ZM196.054 12.2682H198.653C198.738 12.2682 198.835 12.2637 198.943 12.2547C199.055 12.2457 199.161 12.23 199.26 12.2075C199.571 12.1355 199.823 12.005 200.016 11.816C200.214 11.6225 200.358 11.3975 200.448 11.141C200.538 10.88 200.583 10.6145 200.583 10.3445C200.583 10.0745 200.538 9.81125 200.448 9.55475C200.358 9.29375 200.214 9.0665 200.016 8.873C199.823 8.6795 199.571 8.549 199.26 8.4815C199.161 8.4545 199.055 8.43875 198.943 8.43425C198.835 8.42525 198.738 8.42075 198.653 8.42075H196.054V12.2682ZM203.158 17V7.28H209.3V8.42075H204.359V11.465H208.49V12.6057H204.359V15.8592H209.3V17H203.158ZM210.923 17V7.28H212.125V11.5662H217.241V7.28H218.443V17H217.241V12.707H212.125V17H210.923ZM227.835 17H226.62V9.3995L221.551 17H220.336V7.28H221.551V14.8737L226.62 7.28H227.835V17ZM236.48 17H235.278V13.409H232.288L231.829 13.3347C231.073 13.1952 230.499 12.851 230.108 12.302C229.716 11.7485 229.52 11.096 229.52 10.3445C229.52 9.827 229.61 9.35675 229.79 8.93375C229.975 8.50625 230.245 8.153 230.6 7.874C230.96 7.595 231.401 7.415 231.923 7.334C232.049 7.3115 232.175 7.298 232.301 7.2935C232.432 7.2845 232.544 7.28 232.639 7.28H236.48V17ZM230.695 17H229.318L231.424 12.68L232.612 13.0445L230.695 17ZM235.278 12.2682V8.42075H232.679C232.598 8.42075 232.502 8.42525 232.389 8.43425C232.281 8.43875 232.175 8.4545 232.072 8.4815C231.761 8.549 231.509 8.6795 231.316 8.873C231.122 9.0665 230.978 9.29375 230.884 9.55475C230.794 9.81125 230.749 10.0745 230.749 10.3445C230.749 10.6145 230.794 10.88 230.884 11.141C230.978 11.3975 231.122 11.6225 231.316 11.816C231.509 12.005 231.761 12.1355 232.072 12.2075C232.175 12.23 232.281 12.2457 232.389 12.2547C232.502 12.2637 232.598 12.2682 232.679 12.2682H235.278Z" fill="#EF7F1A"/>
<path d="M89.9206 50V15.44H112.481V21.536H96.4486V50H89.9206ZM124.984 50.72C122.328 50.72 119.984 50.152 117.952 49.016C115.936 47.864 114.352 46.288 113.2 44.288C112.064 42.272 111.496 39.968 111.496 37.376C111.496 34.544 112.056 32.08 113.176 29.984C114.296 27.888 115.84 26.264 117.808 25.112C119.776 23.944 122.04 23.36 124.6 23.36C127.32 23.36 129.632 24 131.536 25.28C133.44 26.56 134.848 28.36 135.76 30.68C136.672 33 136.992 35.728 136.72 38.864H130.264V36.464C130.264 33.824 129.84 31.928 128.992 30.776C128.16 29.608 126.792 29.024 124.888 29.024C122.664 29.024 121.024 29.704 119.968 31.064C118.928 32.408 118.408 34.4 118.408 37.04C118.408 39.456 118.928 41.328 119.968 42.656C121.024 43.968 122.568 44.624 124.6 44.624C125.88 44.624 126.976 44.344 127.888 43.784C128.8 43.224 129.496 42.416 129.976 41.36L136.504 43.232C135.528 45.6 133.984 47.44 131.872 48.752C129.776 50.064 127.48 50.72 124.984 50.72ZM116.392 38.864V34.016H133.576V38.864H116.392ZM142.091 50V24.08H148.619V33.968H159.275V24.08H165.803V50H159.275V40.064H148.619V50H142.091ZM184.562 50.72C181.906 50.72 179.562 50.152 177.53 49.016C175.514 47.864 173.93 46.288 172.778 44.288C171.642 42.272 171.074 39.968 171.074 37.376C171.074 34.544 171.634 32.08 172.754 29.984C173.874 27.888 175.418 26.264 177.386 25.112C179.354 23.944 181.618 23.36 184.178 23.36C186.898 23.36 189.21 24 191.114 25.28C193.018 26.56 194.426 28.36 195.338 30.68C196.25 33 196.57 35.728 196.298 38.864H189.842V36.464C189.842 33.824 189.418 31.928 188.57 30.776C187.738 29.608 186.37 29.024 184.466 29.024C182.242 29.024 180.602 29.704 179.546 31.064C178.506 32.408 177.986 34.4 177.986 37.04C177.986 39.456 178.506 41.328 179.546 42.656C180.602 43.968 182.146 44.624 184.178 44.624C185.458 44.624 186.554 44.344 187.466 43.784C188.378 43.224 189.074 42.416 189.554 41.36L196.082 43.232C195.106 45.6 193.562 47.44 191.45 48.752C189.354 50.064 187.058 50.72 184.562 50.72ZM175.97 38.864V34.016H193.154V38.864H175.97ZM209.948 50.72C207.532 50.72 205.292 50.224 203.228 49.232C201.18 48.224 199.564 46.848 198.38 45.104L203.516 41.648C204.428 42.576 205.404 43.304 206.444 43.832C207.5 44.36 208.652 44.624 209.9 44.624C211.196 44.624 212.204 44.344 212.924 43.784C213.66 43.224 214.028 42.48 214.028 41.552C214.028 40.656 213.732 40.048 213.14 39.728C212.564 39.408 211.828 39.24 210.932 39.224C210.052 39.208 209.164 39.2 208.268 39.2H206.732V34.112H208.268C209.612 34.112 210.756 34 211.7 33.776C212.644 33.536 213.116 32.88 213.116 31.808C213.116 30.912 212.788 30.288 212.132 29.936C211.476 29.584 210.716 29.408 209.852 29.408C208.7 29.408 207.54 29.656 206.372 30.152C205.204 30.648 204.14 31.232 203.18 31.904L199.58 27.44C201.052 26.208 202.684 25.224 204.476 24.488C206.284 23.736 208.172 23.36 210.14 23.36C211.804 23.36 213.372 23.648 214.844 24.224C216.332 24.8 217.532 25.672 218.444 26.84C219.372 27.992 219.836 29.44 219.836 31.184C219.836 32.304 219.612 33.4 219.164 34.472C218.716 35.544 217.948 36.608 216.86 37.664L216.812 35.6C217.612 36.016 218.3 36.552 218.876 37.208C219.468 37.848 219.916 38.592 220.22 39.44C220.54 40.288 220.7 41.216 220.7 42.224C220.7 44.08 220.204 45.64 219.212 46.904C218.22 48.168 216.908 49.12 215.276 49.76C213.644 50.4 211.868 50.72 209.948 50.72ZM249.087 24.08V50H242.847V34.16L231.135 50H225.951V24.08H232.191V39.392L243.951 24.08H249.087ZM267.235 50.72C264.547 50.72 262.243 50.12 260.323 48.92C258.403 47.72 256.931 46.088 255.907 44.024C254.883 41.96 254.371 39.632 254.371 37.04C254.371 34.416 254.899 32.072 255.955 30.008C257.027 27.944 258.531 26.32 260.467 25.136C262.403 23.952 264.691 23.36 267.331 23.36C270.387 23.36 272.947 24.136 275.011 25.688C277.091 27.224 278.419 29.328 278.995 32L272.467 33.728C272.083 32.384 271.411 31.336 270.451 30.584C269.507 29.832 268.435 29.456 267.235 29.456C265.859 29.456 264.731 29.792 263.851 30.464C262.971 31.12 262.323 32.024 261.907 33.176C261.491 34.312 261.283 35.6 261.283 37.04C261.283 39.296 261.779 41.128 262.771 42.536C263.779 43.928 265.267 44.624 267.235 44.624C268.707 44.624 269.827 44.288 270.595 43.616C271.363 42.944 271.939 41.984 272.323 40.736L278.995 42.128C278.259 44.88 276.867 47 274.819 48.488C272.771 49.976 270.243 50.72 267.235 50.72Z" fill="#EF7F1A"/>
</g>
<defs>
<clipPath id="clip0_310_1718">
<rect width="280.693" height="60" fill="white"/>
</clipPath>
</defs>
</svg>
