<svg width="17" height="17" viewBox="0 0 17 17" fill="none" xmlns="http://www.w3.org/2000/svg">
<path d="M16 8.50023C16 8.86454 15.7435 9.16563 15.4107 9.21328L15.3182 9.21985L3.33247 9.21927L7.66255 13.7707C7.92939 14.0511 7.93032 14.5068 7.66463 14.7884C7.42308 15.0444 7.04434 15.0685 6.77699 14.8601L6.70037 14.7906L1.20026 9.01056C1.16509 8.97359 1.13454 8.93359 1.10861 8.89134C1.10128 8.87862 1.09383 8.86561 1.08676 8.85234C1.08026 8.84097 1.07438 8.82915 1.06884 8.81721C1.06114 8.79984 1.05362 8.78189 1.0468 8.76357C1.04125 8.74944 1.03662 8.73571 1.03239 8.72186C1.02737 8.70469 1.02249 8.6864 1.01829 8.66782C1.01517 8.65485 1.0127 8.64237 1.01054 8.62984C1.00751 8.6112 1.00493 8.5919 1.00308 8.57238C1.00149 8.55749 1.00054 8.54274 1.00001 8.52797C0.999871 8.51902 0.9997 8.50964 0.9997 8.50023L1.00004 8.47235C1.00056 8.45823 1.00148 8.44411 1.00278 8.43004L0.9997 8.50023C0.9997 8.45481 1.00368 8.41039 1.01131 8.36731C1.01307 8.35702 1.01518 8.34646 1.01751 8.33594C1.02236 8.31427 1.02795 8.29341 1.0344 8.27296C1.03756 8.2628 1.04125 8.25194 1.04519 8.24117C1.05315 8.21952 1.06181 8.19887 1.07134 8.17877C1.07577 8.16931 1.08072 8.15941 1.08592 8.14962C1.09444 8.13363 1.10321 8.11844 1.1125 8.10364C1.11904 8.09316 1.1263 8.08225 1.13387 8.07152L1.13977 8.06323C1.15814 8.0379 1.17807 8.01389 1.1994 7.99137L1.20022 7.99071L6.70033 2.20972C6.96715 1.92927 7.39886 1.93022 7.66459 2.21183C7.90615 2.46784 7.92737 2.86767 7.72876 3.14896L7.66259 3.22953L3.33429 7.78003L15.3182 7.7806C15.6947 7.7806 16 8.10279 16 8.50023Z" fill="#202020"/>
</svg>
