<svg width="20" height="21" viewBox="0 0 20 21" fill="none" xmlns="http://www.w3.org/2000/svg">
<path d="M19.8729 10.1111C19.6942 9.86667 15.4371 4.12646 9.9999 4.12646C4.56274 4.12646 0.305391 9.86667 0.126914 10.1109C-0.0423048 10.3427 -0.0423048 10.6572 0.126914 10.8891C0.305391 11.1335 4.56274 16.8737 9.9999 16.8737C15.4371 16.8737 19.6942 11.1335 19.8729 10.8893C20.0423 10.6575 20.0423 10.3427 19.8729 10.1111ZM9.9999 15.555C5.99486 15.555 2.52606 11.7452 1.49922 10.4996C2.52473 9.25304 5.98626 5.44514 9.9999 5.44514C14.0048 5.44514 17.4733 9.25437 18.5006 10.5005C17.4751 11.7471 14.0135 15.555 9.9999 15.555Z" fill="#686868"/>
<path d="M9.99992 6.54395C7.81858 6.54395 6.04385 8.31868 6.04385 10.5C6.04385 12.6813 7.81858 14.4561 9.99992 14.4561C12.1812 14.4561 13.956 12.6813 13.956 10.5C13.956 8.31868 12.1812 6.54395 9.99992 6.54395ZM9.99992 13.1374C8.54562 13.1374 7.36257 11.9543 7.36257 10.5C7.36257 9.04575 8.54566 7.86266 9.99992 7.86266C11.4542 7.86266 12.6373 9.04575 12.6373 10.5C12.6373 11.9543 11.4542 13.1374 9.99992 13.1374Z" fill="#686868"/>
</svg>
