<svg width="24" height="25" viewBox="0 0 24 25" fill="none" xmlns="http://www.w3.org/2000/svg">
<g id="24/ search">
<path id="Vector" d="M10.2489 2.5C11.8169 2.49983 13.3524 2.94648 14.6756 3.78763C15.9989 4.62878 17.055 5.8296 17.7203 7.24941C18.3856 8.66922 18.6326 10.2492 18.4322 11.8043C18.2318 13.3594 17.5924 14.8252 16.5889 16.03L22.2789 21.72C22.3776 21.8117 22.4498 21.9283 22.4878 22.0575C22.5258 22.1868 22.5283 22.3239 22.4949 22.4544C22.4615 22.5849 22.3936 22.704 22.2982 22.7992C22.2028 22.8943 22.0835 22.962 21.9529 22.995C21.8225 23.0284 21.6856 23.0261 21.5564 22.9882C21.4272 22.9504 21.3107 22.8785 21.2189 22.78L15.5289 17.09C14.5107 17.9378 13.3034 18.5278 12.0089 18.8103C10.7145 19.0928 9.37106 19.0594 8.09227 18.7128C6.81349 18.3663 5.63697 17.7169 4.66223 16.8195C3.6875 15.9222 2.94322 14.8033 2.49237 13.5574C2.04151 12.3116 1.89734 10.9755 2.07204 9.66216C2.24674 8.34883 2.73517 7.09688 3.49603 6.01224C4.25689 4.92759 5.26779 4.04214 6.44321 3.43079C7.61864 2.81944 8.92401 2.50017 10.2489 2.5ZM3.49891 10.75C3.49891 11.6364 3.67351 12.5142 4.01273 13.3331C4.35194 14.1521 4.84915 14.8962 5.47594 15.523C6.10274 16.1498 6.84685 16.647 7.6658 16.9862C8.48475 17.3254 9.36249 17.5 10.2489 17.5C11.1353 17.5 12.0131 17.3254 12.832 16.9862C13.651 16.647 14.3951 16.1498 15.0219 15.523C15.6487 14.8962 16.1459 14.1521 16.4851 13.3331C16.8243 12.5142 16.9989 11.6364 16.9989 10.75C16.9989 8.95979 16.2878 7.2429 15.0219 5.97703C13.756 4.71116 12.0391 4 10.2489 4C8.4587 4 6.74181 4.71116 5.47594 5.97703C4.21007 7.2429 3.49891 8.95979 3.49891 10.75Z" fill="#686868"/>
</g>
</svg>
